<svg width="162" height="42" viewBox="0 0 162 42" fill="none" xmlns="http://www.w3.org/2000/svg">
<g clip-path="url(#clip0)">
<path d="M67.0883 28.7314H57.9569L56.6749 31.3111H51.5801L60.9419 12.4688H64.3599L73.3743 31.3111H68.363L67.0883 28.7314ZM65.3188 25.0495L62.5068 18.9905L59.8415 25.0495H65.3188Z" fill="white"/>
<path d="M82.5082 10.847V13.6853C82.5082 13.6853 78.6255 12.9604 78.6255 15.1925V16.3523H82.1035V19.8892H78.6255V31.3102H74.1022V19.8892H71.4648V16.3523H74.1022V15.1925C74.1022 10.8156 77.7262 9.27508 82.5082 10.847Z" fill="white"/>
<path d="M92.2956 16.1495V19.9466C91.9896 19.8876 91.6796 19.8583 91.3683 19.8593C89.223 19.8593 87.3683 21.5116 87.3683 24.411V31.31H82.9043V16.4098H87.3683V18.1564C87.571 17.6638 88.383 15.9818 90.905 15.9818C91.3743 15.9763 91.8416 16.0327 92.2956 16.1495Z" fill="white"/>
<path d="M95.2338 14.6705C94.7145 14.6726 94.2065 14.5202 93.7738 14.2327C93.3411 13.9452 93.0038 13.5356 92.8045 13.056C92.6051 12.5763 92.5525 12.0482 92.6538 11.5388C92.7558 11.0294 93.0065 10.5616 93.3738 10.195C93.7418 9.82822 94.2104 9.57922 94.7204 9.47942C95.2298 9.37969 95.7578 9.43369 96.2371 9.63462C96.7158 9.83556 97.1245 10.1744 97.4105 10.608C97.6965 11.0416 97.8471 11.5504 97.8431 12.0698C97.8385 12.7595 97.5611 13.4194 97.0731 13.9062C96.5845 14.3931 95.9238 14.6678 95.2338 14.6705ZM92.9738 16.4363H97.4958V31.3068H92.9738V16.4363Z" fill="white"/>
<path d="M112.58 28.8464C110.957 30.469 109.102 31.8034 106.376 31.8034C102.261 31.8034 98.4043 28.3241 98.4043 23.8319C98.4043 19.6278 101.941 15.8604 106.376 15.8604C108.84 15.8604 111.044 17.0481 112.664 18.903L109.532 21.5124C109.164 20.9848 108.674 20.5538 108.104 20.256C107.534 19.9584 106.9 19.8028 106.257 19.8024C105.571 19.8034 104.897 19.9793 104.298 20.3136C103.699 20.6479 103.196 21.1294 102.835 21.7128C102.474 22.296 102.268 22.9618 102.237 23.6468C102.206 24.3319 102.35 25.0137 102.655 25.6276C102.961 26.2416 103.418 26.7673 103.984 27.1552C104.549 27.543 105.204 27.78 105.887 27.8438C106.57 27.9076 107.258 27.7961 107.886 27.5198C108.513 27.2435 109.06 26.8116 109.474 26.2649L112.58 28.8464Z" fill="white"/>
<path d="M129.295 16.4106V31.3108H124.831V30.1214C124.277 30.5506 123.674 30.9108 123.033 31.1938C121.035 32.0066 118.799 32.0066 116.801 31.1938C115.862 30.7854 115.007 30.2055 114.279 29.4839C113.169 28.3524 112.415 26.9199 112.11 25.3639C111.805 23.8079 111.964 22.1967 112.566 20.73C113.383 18.8298 114.898 17.3152 116.798 16.4979C117.783 16.0772 118.843 15.8604 119.914 15.8604C120.985 15.8604 122.045 16.0772 123.03 16.4979C123.671 16.781 124.274 17.1412 124.827 17.5704V16.4106H129.295ZM123.933 23.8319C123.931 23.0372 123.693 22.261 123.249 21.6016C122.805 20.9422 122.176 20.4293 121.441 20.1276C120.705 19.826 119.897 19.7492 119.118 19.907C118.339 20.0648 117.625 20.4501 117.065 21.0141C116.505 21.5782 116.125 22.2956 115.973 23.0757C115.821 23.8558 115.903 24.6634 116.211 25.3964C116.518 26.1294 117.035 26.7549 117.698 27.1936C118.361 27.6324 119.139 27.8648 119.933 27.8613C120.998 27.8567 122.017 27.4298 122.767 26.6742C123.517 25.9187 123.936 24.8964 123.933 23.8319Z" fill="white"/>
<path d="M146.658 16.3799L140.894 31.3098H135.902L130.139 16.3799H134.543L138.397 25.3435L142.281 16.3851L146.658 16.3799Z" fill="white"/>
<path d="M160.974 28.4412C159.322 30.3624 157.322 31.8034 154.452 31.8034C152.488 31.8106 150.59 31.0881 149.128 29.776C147.666 28.4639 146.743 26.6556 146.538 24.7017C146.046 20.15 149.728 15.8604 154.482 15.8604C159.439 15.8604 162.481 20.7299 161.699 25.3968H150.598C150.9 26.1711 151.43 26.8352 152.119 27.3012C152.807 27.7671 153.621 28.013 154.452 28.0062C155.675 28.0062 156.8 27.4543 157.727 26.4343L160.974 28.4412ZM150.598 22.5272H157.989C157.989 20.9552 156.192 19.6575 154.482 19.6575C152.365 19.6575 150.598 21.0478 150.598 22.5272Z" fill="white"/>
<path d="M11.9904 41.3334H0L11.2533 21.4553L11.9922 20.1523L12.731 21.4553L18.0756 30.8869C20.7147 35.5556 17.3455 41.3334 11.9904 41.3334Z" fill="#9E9E9E"/>
<path d="M46.6897 41.3333H34.6591C32.9688 41.3327 31.3091 40.8831 29.8496 40.0305C28.3901 39.1781 27.1832 37.9532 26.3523 36.4813L17.8743 21.4605L15.3941 17.0695C15.135 16.6112 14.9998 16.0932 15.002 15.5667C15.0041 15.0402 15.1435 14.5233 15.4063 14.0671L23.4756 0L35.5272 21.4605L46.6897 41.3333Z" fill="white"/>
</g>
<defs>
<clipPath id="clip0">
<rect width="162" height="41.3333" fill="white"/>
</clipPath>
</defs>
</svg>
