 <svg width="141" height="32" viewBox="0 0 141 32" fill="none" xmlns="http://www.w3.org/2000/svg">
<g clip-path="url(#clip0)">
<path fill-rule="evenodd" clip-rule="evenodd" d="M83.2719 26.5901C85.1978 26.5901 86.361 26.3221 87.8885 25.3823C88.9319 24.7404 89.741 23.8652 90.4156 22.8744L87.6996 20.6683C85.1893 25.3351 79.0213 23.104 79.0213 18.2882C79.0213 10.7785 86.8571 11.1606 87.995 15.9658H80.6744V18.9847H91.8328L91.8917 17.5914C91.8917 15.7798 91.1305 13.5057 90.0167 12.1782C89.8436 11.9722 89.7062 11.8086 89.5393 11.6031C88.7484 10.6319 86.8686 9.57304 85.5708 9.29309C84.226 9.00333 83.1222 8.97254 81.7951 9.28863C80.0894 9.69494 78.9993 10.4556 77.7957 11.6255C77.1198 12.283 76.5252 13.3115 76.1447 14.182C75.7404 15.1077 75.6156 15.6645 75.4683 16.6518C75.2657 18.0124 75.4688 19.9578 75.9676 21.1744C76.776 23.1448 77.9711 24.6989 79.8671 25.7C80.7227 26.1513 81.9859 26.5896 83.2719 26.5896V26.5901Z" fill="url(#paint0_linear)"/>
<path fill-rule="evenodd" clip-rule="evenodd" d="M128.053 17.8235C128.053 11.6289 135.06 10.6772 136.916 15.7259C137.664 17.7602 137.24 20.243 136.095 21.6108C134.689 23.2913 132.578 23.7219 130.688 22.7786C129.898 22.3839 129.178 21.6617 128.78 20.882C128.371 20.0797 128.052 19.0013 128.052 17.8235H128.053ZM124.216 31.2344H128.171V25.3128C129.263 25.8812 130.314 26.5468 131.832 26.5901C132.6 26.612 133.284 26.6422 134.1 26.4994C134.799 26.3772 135.436 26.1562 135.964 25.8936C137.601 25.0809 138.92 23.948 139.762 22.314C140.042 21.7731 140.328 21.1957 140.497 20.5982C141.328 17.6702 140.786 14.7666 139.412 12.7495C139.051 12.2199 138.757 11.8329 138.31 11.3938C137.95 11.041 137.38 10.5635 136.942 10.3004C135.248 9.28301 134.2 9.11523 132.185 9.11523C131.014 9.11523 129.56 9.61498 128.608 10.1838C128.431 10.2896 128.349 10.3577 128.171 10.4505V9.11523H124.215V31.2341L124.216 31.2344Z" fill="url(#paint1_linear)"/>
<path fill-rule="evenodd" clip-rule="evenodd" d="M47.8815 23.2221C45.0591 23.2221 43.3355 20.7839 43.3355 18.1132C43.3355 16.4502 43.6456 15.2457 44.49 14.1397C45.0481 13.4088 46.3244 12.482 47.5861 12.482H48.2354C49.5928 12.482 50.7127 13.3249 51.3478 14.0655C51.6995 14.4759 51.9949 15.0742 52.1828 15.5668C52.9252 17.5146 52.5783 19.9243 51.2217 21.6304C50.8436 22.1057 50.4052 22.4182 49.8646 22.734C49.4382 22.9828 48.5319 23.2219 47.8812 23.2219L47.8815 23.2221ZM39.498 26.6474H43.4535V25.254C45.4554 26.5722 47.6936 26.9118 50.0902 26.3231C50.3905 26.2493 50.611 26.1685 50.8423 26.0759C51.0545 25.9915 51.3615 25.8756 51.5402 25.7751C52.6823 25.1326 52.4725 25.2023 53.3041 24.5487C54.1358 23.8952 55.0001 22.5363 55.4133 21.5723C56.4133 19.2385 56.3945 16.5608 55.4304 14.2313C54.6432 12.3284 53.3771 11.0001 51.5982 9.98831C49.4328 8.75639 46.0025 8.81179 43.8546 10.1481C43.6948 10.2474 43.6196 10.3057 43.4535 10.3922V4.4707H39.498V26.6476V26.6474Z" fill="url(#paint2_linear)"/>
<path fill-rule="evenodd" clip-rule="evenodd" d="M65.4145 26.5901C67.3405 26.5901 68.5036 26.3221 70.0311 25.3823C71.0746 24.7404 71.8836 23.8652 72.558 22.8744L69.8422 20.6683C67.3318 25.3351 61.1639 23.104 61.1639 18.2882C61.1639 10.7785 68.9997 11.1606 70.1377 15.9658H62.817V18.9847H73.975L74.0341 17.5914C74.0341 15.7798 73.2728 13.5057 72.1591 12.1782C71.986 11.9722 71.8487 11.8086 71.6815 11.6031C70.891 10.6319 69.0113 9.57304 67.7134 9.29309C66.3687 9.00333 65.2648 8.97254 63.9378 9.28863C62.232 9.69494 61.1419 10.4556 59.9383 11.6255C59.2624 12.283 58.6677 13.3115 58.2873 14.182C57.883 15.1077 57.7582 15.6645 57.6109 16.6518C57.4083 18.0124 57.6114 19.9578 58.1103 21.1744C58.9187 23.1448 60.1137 24.6989 62.0096 25.7C62.8653 26.1513 64.1285 26.5896 65.4145 26.5896V26.5901Z" fill="url(#paint3_linear)"/>
<path fill-rule="evenodd" clip-rule="evenodd" d="M114.238 12.3091H114.887C116.228 12.3091 117.444 13.255 118.034 14.0336C119.613 16.1183 119.696 19.4763 118.11 21.4575C117.719 21.9454 117.389 22.2646 116.848 22.5971C115.926 23.1644 115.314 23.1657 114.297 23.1657C112.409 23.1657 110.868 21.5014 110.304 19.8362C109.469 17.3693 110.172 14.121 112.351 12.892C112.847 12.6126 113.477 12.3094 114.238 12.3094V12.3091ZM114.18 26.5908C115.355 26.5908 115.555 26.6063 116.731 26.3129C117.194 26.1973 117.883 25.9239 118.242 25.709C118.475 25.5691 118.634 25.4905 118.866 25.3369C119.767 24.7443 119.868 24.619 120.57 23.8768C122.462 21.8771 123.257 18.6389 122.657 15.7004C122.522 15.0439 122.375 14.6553 122.172 14.0867C121.944 13.4516 121.44 12.5973 121.036 12.0686C120.882 11.8678 120.714 11.6353 120.542 11.4522C119.519 10.3673 118.07 9.38786 116.537 9.06142C114.624 8.65406 112.912 8.77913 111.169 9.63845C110.413 10.011 109.271 10.7659 108.748 11.4382C107.917 12.5055 107.771 12.4973 107.111 14.0086C106.89 14.5138 106.722 14.9906 106.588 15.5843C106.516 15.9078 106.485 16.1426 106.434 16.4785C106.391 16.775 106.404 17.1695 106.352 17.5009C106.288 17.9038 106.43 19.0605 106.487 19.4088C106.68 20.575 107.039 21.5 107.586 22.5079C107.666 22.6546 107.705 22.6968 107.792 22.8285L108.477 23.7805C109.693 25.3203 112.115 26.5908 114.18 26.5908Z" fill="url(#paint4_linear)"/>
<path fill-rule="evenodd" clip-rule="evenodd" d="M91.8632 12.3661H101.427C101.11 12.8318 100.581 13.3384 100.222 13.793C100.021 14.0473 99.7913 14.2671 99.5976 14.5141C98.8596 15.4531 97.2756 17.1088 96.4599 18.1051L92.7341 22.395C92.6387 22.4937 91.5098 23.7454 91.5098 23.8609V26.5896H106.505V23.2804H96.5867L100.32 18.9979C100.536 18.7594 100.718 18.5035 100.94 18.2731C101.172 18.0346 101.335 17.7855 101.56 17.5475C102.05 17.0302 106.505 11.9671 106.505 11.7853V9.05664H91.8632V12.3659V12.3661Z" fill="url(#paint5_linear)"/>
<path fill-rule="evenodd" clip-rule="evenodd" d="M140.983 24.1495L141 24.1328C140.999 24.1338 140.978 24.144 140.983 24.1495Z" fill="url(#paint6_linear)"/>
<path fill-rule="evenodd" clip-rule="evenodd" d="M5.44755 0C4.5369 0 3.62651 0.000263848 2.71586 0H2.59486C1.78938 0.00131924 1.26617 0.0319269 0.63322 0.680729C0.132549 1.19339 0.00268312 1.76831 0 2.7398V2.78649V27.2278V27.2692V28.6243C0.0166354 29.0323 0.0643979 29.4106 0.184066 29.7174C0.421254 30.324 0.941782 30.8285 1.63027 31.024C2.38503 31.2383 5.95895 31.1177 7.08453 31.1177C7.08453 21.1804 12.4422 10.175 23.8514 10.1595C24.3615 10.1584 24.6681 10.218 25.209 10.218V10.276C24.4181 10.276 22.7207 10.7766 21.9533 11.0803C13.4175 14.4602 10.3316 22.7255 10.3316 31.1177C12.319 31.1177 14.3069 31.1177 16.2943 31.1177C18.7425 31.1177 21.1425 31.3354 23.2093 30.6027C24.1031 30.2858 25.3947 29.6151 26.0507 28.9848C26.7481 28.3154 26.7722 28.4009 27.4781 27.4858C28.1186 26.6555 28.1473 26.38 28.5737 25.5859C28.6215 25.4122 28.7159 25.212 28.7878 25.0004C29.6531 22.4501 29.2624 19.573 27.8069 17.4164C26.9903 16.2071 26.4658 15.9314 26.212 15.5591C26.4742 15.1742 27.1211 14.7911 27.984 13.4087C28.0607 13.2858 28.1556 13.1075 28.2163 13.0022C28.5579 12.4075 28.9622 11.224 29.0894 10.551C29.3617 9.11012 29.3005 7.34711 28.7336 5.93869C27.974 4.0506 27.0054 2.66618 25.2204 1.49812C23.6582 0.476246 22.223 0.113982 20.6958 0.000264105H16.1256C12.5659 0.000264105 9.00642 0.000264105 5.44702 0.000264105L5.44755 0Z" fill="url(#paint7_linear)"/>
</g>
<defs>
<linearGradient id="paint0_linear" x1="83.6412" y1="9.06348" x2="83.6412" y2="26.5901" gradientUnits="userSpaceOnUse">
<stop offset="0.526042" stop-color="white"/>
<stop offset="1" stop-color="white" stop-opacity="0"/>
</linearGradient>
<linearGradient id="paint1_linear" x1="132.553" y1="9.11523" x2="132.553" y2="31.2344" gradientUnits="userSpaceOnUse">
<stop offset="0.526042" stop-color="white"/>
<stop offset="1" stop-color="white" stop-opacity="0"/>
</linearGradient>
<linearGradient id="paint2_linear" x1="47.8282" y1="4.4707" x2="47.8282" y2="26.6476" gradientUnits="userSpaceOnUse">
<stop offset="0.526042" stop-color="white"/>
<stop offset="1" stop-color="white" stop-opacity="0"/>
</linearGradient>
<linearGradient id="paint3_linear" x1="65.7836" y1="9.06348" x2="65.7836" y2="26.5901" gradientUnits="userSpaceOnUse">
<stop offset="0.526042" stop-color="white"/>
<stop offset="1" stop-color="white" stop-opacity="0"/>
</linearGradient>
<linearGradient id="paint4_linear" x1="114.595" y1="8.83789" x2="114.595" y2="26.5909" gradientUnits="userSpaceOnUse">
<stop offset="0.526042" stop-color="white"/>
<stop offset="1" stop-color="white" stop-opacity="0"/>
</linearGradient>
<linearGradient id="paint5_linear" x1="99.0073" y1="9.05664" x2="99.0073" y2="26.5896" gradientUnits="userSpaceOnUse">
<stop offset="0.526042" stop-color="white"/>
<stop offset="1" stop-color="white" stop-opacity="0"/>
</linearGradient>
<linearGradient id="paint6_linear" x1="140.991" y1="24.1328" x2="140.991" y2="24.1495" gradientUnits="userSpaceOnUse">
<stop offset="0.526042" stop-color="white"/>
<stop offset="1" stop-color="white" stop-opacity="0"/>
</linearGradient>
<linearGradient id="paint7_linear" x1="14.623" y1="0" x2="14.623" y2="31.1515" gradientUnits="userSpaceOnUse">
<stop offset="0.526042" stop-color="white"/>
<stop offset="1" stop-color="white" stop-opacity="0"/>
</linearGradient>
<clipPath id="clip0">
<rect width="141" height="31.2342" fill="white"/>
</clipPath>
</defs>
</svg>