<svg width="173" height="34" viewBox="0 0 173 34" fill="none" xmlns="http://www.w3.org/2000/svg">
<g clip-path="url(#clip0)">
<path fill-rule="evenodd" clip-rule="evenodd" d="M57.6027 7.93359H57.6699C58.0056 7.93359 58.207 8.20026 58.207 8.53359V24.0002C58.207 24.2669 58.0056 24.5335 57.6699 24.5335C57.4013 24.5335 57.1328 24.3336 57.1328 24.0002V8.46692C57.1328 8.20026 57.3342 7.93359 57.6027 7.93359ZM42.8999 8.73359H53.0375C53.3732 8.73359 53.5746 9.06692 53.5746 9.33359C53.5746 9.60026 53.3732 9.86692 53.0375 9.86692H43.437V16.3335H52.0976C52.3661 16.3335 52.6347 16.5335 52.6347 16.8669C52.6347 17.1335 52.4332 17.4002 52.0976 17.4002H43.5041V24.0669C43.437 24.4002 43.1684 24.6669 42.8327 24.6669C42.497 24.6669 42.2285 24.4002 42.2285 24.0669V9.33359H42.2956C42.2956 9.00026 42.5642 8.73359 42.8999 8.73359ZM72.3056 13.5335C72.3056 13.2002 72.0371 13.0002 71.7685 13.0002C71.4329 13.0002 71.2314 13.2669 71.2314 13.5335V20.0002C71.2314 22.2002 69.4188 23.9335 67.2033 23.8669C64.8535 23.8669 63.5108 22.3335 63.5108 19.9335V13.5335C63.5108 13.2002 63.2422 13.0002 62.9737 13.0002C62.7051 13.0002 62.4366 13.2669 62.4366 13.5335V20.1335C62.4366 22.8669 64.1821 24.8669 67.069 24.8669C68.8145 24.9335 70.4929 24.0002 71.2986 22.4669V24.1336C71.2986 24.4669 71.5671 24.6669 71.8357 24.6669C72.1714 24.6669 72.3728 24.4002 72.3728 24.1336H72.3056V13.5335ZM82.5104 13.6002C82.5104 13.8669 82.2418 14.0669 81.9733 14.0669H78.2808V21.4669C78.2808 23.1335 79.2207 23.7335 80.6305 23.7335C81.1005 23.7335 81.5705 23.6669 81.9733 23.5335C82.2418 23.5335 82.4432 23.7335 82.4432 24.0002C82.4432 24.2002 82.309 24.4002 82.1075 24.4669C81.5705 24.6669 80.9662 24.7335 80.4291 24.7335C78.6836 24.7335 77.2066 23.7335 77.2066 21.6002V14.0669H75.931C75.6625 14.0669 75.3939 13.8002 75.3939 13.5335C75.3939 13.2669 75.6625 13.0669 75.931 13.0669H77.2066V9.86692C77.2066 9.60026 77.408 9.33359 77.6765 9.33359H77.7437C78.0122 9.33359 78.2808 9.60026 78.2808 9.86692V13.0669H81.9733C82.2418 13.0669 82.5104 13.3335 82.5104 13.6002ZM91.1038 14.0669C91.3724 14.0669 91.6409 13.8669 91.6409 13.6002C91.6409 13.3335 91.3724 13.0669 91.1038 13.0669H87.4113V9.86692C87.4113 9.60026 87.1428 9.33359 86.8742 9.33359H86.8071C86.5386 9.33359 86.3371 9.60026 86.3371 9.86692V13.0669H85.0615C84.793 13.0669 84.5245 13.2669 84.5245 13.5335C84.5245 13.8002 84.793 14.0669 85.0615 14.0669H86.3371V21.6002C86.3371 23.7335 87.8141 24.7335 89.5597 24.7335C90.0968 24.7335 90.701 24.6669 91.2381 24.4669C91.4395 24.4002 91.5738 24.2002 91.5738 24.0002C91.5738 23.7335 91.3724 23.5335 91.1038 23.5335C90.701 23.6669 90.2311 23.7335 89.7611 23.7335C88.3512 23.7335 87.4113 23.1335 87.4113 21.4669V14.0669H91.1038ZM93.655 18.8002C93.655 15.4002 96.0048 12.7335 99.1602 12.7335C102.45 12.7335 104.532 15.4002 104.532 18.8002C104.532 19.0669 104.263 19.3335 103.995 19.3335H94.8635C95.0649 22.2002 97.1461 23.8669 99.4287 23.8669C100.839 23.8669 102.249 23.2669 103.189 22.2669C103.256 22.2002 103.39 22.1335 103.525 22.1335C103.793 22.1335 104.062 22.4002 104.062 22.6669C104.062 22.8002 103.995 22.9335 103.86 23.0669C102.719 24.3335 101.041 25.0002 99.3616 24.9335C96.2733 24.9335 93.655 22.5335 93.655 18.8669V18.8002ZM94.7963 18.2669C94.9977 15.7335 96.8104 13.8002 99.0931 13.8002C101.712 13.8002 103.122 15.9335 103.256 18.2669H94.7963ZM108.895 16.4002C109.634 14.4669 111.447 13.0669 113.528 12.9335C113.864 12.9335 114.132 13.2002 114.132 13.6002C114.132 13.8669 113.931 14.2002 113.595 14.2002H113.528C111.044 14.4669 108.895 16.2669 108.895 20.0002V24.2669C108.828 24.6002 108.627 24.8002 108.291 24.8002C108.023 24.8002 107.754 24.5335 107.754 24.2669V13.6002C107.821 13.2669 108.023 13.0669 108.358 13.0669C108.627 13.0669 108.895 13.3335 108.895 13.6002V16.4002ZM131.856 12.3335C131.051 12.3335 130.379 12.8669 130.178 13.6669L128.231 19.8669L126.284 13.6669C126.082 12.8669 125.344 12.2669 124.471 12.2669H124.27C123.397 12.2669 122.658 12.8002 122.457 13.6669L120.51 19.8002L118.63 13.6002C118.429 12.8669 117.757 12.2669 116.952 12.2669H116.885C116.012 12.2669 115.341 13.0002 115.341 13.8669C115.341 14.1335 115.408 14.4002 115.475 14.6668V14.6669L118.496 23.2669C118.697 24.1336 119.436 24.7336 120.376 24.8002H120.51C121.383 24.8002 122.121 24.2002 122.39 23.3335L124.337 17.2002L126.284 23.3335C126.485 24.2002 127.291 24.8002 128.164 24.8002H128.298C129.238 24.8002 130.043 24.2002 130.245 23.2669L133.266 14.6002C133.333 14.4002 133.4 14.1335 133.4 13.9335V13.8669C133.4 13.0002 132.729 12.3335 131.856 12.3335ZM136.556 12.9335C137.831 12.5335 139.107 12.2669 140.45 12.3335C142.329 12.3335 143.672 12.8669 144.679 13.7335C145.619 14.8002 146.089 16.2002 146.022 17.6002V23.0669C146.022 24.0002 145.283 24.7335 144.344 24.7335C143.471 24.7335 142.732 24.1335 142.665 23.2669C141.725 24.2669 140.382 24.8669 138.973 24.8002C136.757 24.8002 134.81 23.4669 134.81 21.0669C134.81 18.4002 136.824 17.1336 139.711 17.1336C140.718 17.1336 141.725 17.2669 142.665 17.6002V17.4002C142.665 15.9335 141.792 15.2002 140.047 15.2002C139.241 15.2002 138.436 15.2669 137.63 15.5335C137.496 15.6002 137.294 15.6002 137.16 15.6002C136.354 15.6669 135.683 15.0669 135.683 14.2669C135.683 13.6669 136.019 13.1335 136.556 12.9335ZM142.732 20.2669C142.732 21.6002 141.591 22.4002 139.98 22.3335C138.905 22.3335 138.1 21.8002 138.1 20.8669V20.8002C138.1 19.8002 139.04 19.1335 140.517 19.1335C141.255 19.1335 142.061 19.3335 142.732 19.6002V20.2669ZM156.361 13.4669C156.562 12.7335 157.234 12.2669 157.972 12.2669C158.912 12.2669 159.651 13.0002 159.651 13.8669V13.9335C159.651 14.2002 159.583 14.4669 159.449 14.7335L155.824 23.3335C155.488 24.2002 154.683 24.7336 153.81 24.8002H153.608C152.668 24.7336 151.93 24.1336 151.661 23.2669L147.902 14.6669C147.767 14.4002 147.7 14.1335 147.7 13.8669C147.767 12.9335 148.506 12.2669 149.379 12.2669C150.184 12.2669 150.856 12.8002 151.057 13.5335L153.675 20.5335L156.361 13.4669ZM160.993 19.0669C161.128 22.4002 164.015 25.0002 167.371 24.8002C168.915 24.8002 170.392 24.3335 171.601 23.3335C171.937 23.0669 172.071 22.7335 172.071 22.3335V22.2669C172.071 21.5335 171.467 20.9335 170.728 20.9335C170.46 20.9335 170.124 21.0002 169.923 21.2002C169.184 21.7335 168.311 22.0669 167.438 22.0002C165.961 22.0669 164.686 21.0669 164.484 19.6002H171.4C172.272 19.5335 172.944 18.8002 172.877 17.9335V17.6669C172.877 14.6669 170.258 12.1335 167.036 12.2002C163.477 12.2002 160.993 15.0669 160.993 18.5335V19.0669ZM167.036 15.0002C165.626 15.0002 164.686 16.0002 164.417 17.6002H169.587C169.385 16.0669 168.446 15.0002 167.036 15.0002Z" fill="white"/>
<path fill-rule="evenodd" clip-rule="evenodd" d="M24.9084 0.266909C40.0141 -1.99976 30.3464 10.8669 25.6469 14.4669C28.8694 16.9335 32.1591 20.4002 33.569 24.3335C36.1873 31.5335 29.7422 32.6002 24.9084 30.8002C19.6046 28.9335 14.905 24.9335 11.8168 20.2669C10.944 20.2669 10.0041 20.1335 9.13135 19.8669C10.8769 24.8002 11.6154 29.8669 11.1454 34.0002C11.1454 25.6669 7.18439 17.4002 1.47779 10.5335C-0.536298 8.13357 1.54493 6.33357 3.35761 8.66691C4.57786 10.3567 5.69867 12.1152 6.71443 13.9335C8.66139 7.13357 18.329 1.20024 24.9084 0.266909ZM22.76 12.5335C25.714 10.7335 34.7103 1.06691 26.3182 1.93357C21.4844 2.46691 15.6436 6.93357 13.2266 9.80024C16.5835 9.40024 20.0074 10.8669 22.76 12.5335ZM13.1595 11.9335C15.4421 11.7335 17.9262 12.9335 19.806 14.1335C17.9933 15.0002 15.9792 15.5335 13.898 15.6669C10.8097 15.6669 10.2055 12.2002 13.1595 11.9335ZM14.4351 20.0002C17.1206 23.0002 20.8131 25.9335 24.7741 27.0002C27.0567 27.6002 29.6079 27.3335 28.668 24.0669C27.7281 21.0669 25.3112 18.4002 22.9614 16.4002C22.2901 16.8669 21.5516 17.3335 20.8131 17.6669C18.799 18.8002 16.6506 19.6002 14.4351 20.0002Z" fill="white"/>
</g>
<defs>
<clipPath id="clip0">
<rect width="173" height="34" fill="white"/>
</clipPath>
</defs>
</svg>