<svg width="118" height="34" viewBox="0 0 118 34" fill="none" xmlns="http://www.w3.org/2000/svg">
    <g clip-path="url(#clip0)">
    <path d="M3.99306 17.0006C3.99306 8.27175 10.7285 1.08008 19.3999 0.112533C18.7455 0.0394445 18.0792 0 17.4034 0C7.7925 0 0 7.61162 0 17.0006C0 26.3895 7.7925 34.0011 17.4046 34.0011C18.0804 34.0011 18.7456 33.9617 19.4012 33.8886C10.7297 32.9199 3.99306 25.7294 3.99306 17.0006Z" fill="white" fill-opacity="0.5"/>
    <path d="M21.3969 0C20.7211 0 20.056 0.0394445 19.4004 0.112533C28.0718 1.08008 34.8072 8.27175 34.8072 17.0006C34.8072 25.7294 28.0718 32.9199 19.4004 33.8875C20.056 33.9606 20.7211 34 21.3969 34C31.009 34 38.8015 26.3884 38.8015 16.9994C38.8015 7.61049 31.009 0 21.3969 0Z" fill="white" fill-opacity="0.5"/>
    <path d="M19.4011 33.8894C27.91 33.8894 34.8079 26.3283 34.8079 17.0013C34.8079 7.67433 27.91 0.113281 19.4011 0.113281C10.8921 0.113281 3.99414 7.67433 3.99414 17.0013C3.99414 26.3283 10.8921 33.8894 19.4011 33.8894Z" fill="white"/>
    <path d="M24.8826 13.4696C24.4978 13.3756 24.0476 13.277 23.5286 13.1738C23.0096 13.0705 22.4526 13.0195 21.8587 13.0195C21.5891 13.0195 21.2684 13.0427 20.8943 13.0903C20.5202 13.1379 20.2363 13.1889 20.0451 13.2445V24.5535H15.7539V10.5438C16.5212 10.2816 17.4286 10.0333 18.4761 9.79777C19.5225 9.56348 20.6888 9.44629 21.9751 9.44629C22.2055 9.44629 22.4834 9.46019 22.81 9.48807C23.1367 9.51588 23.4621 9.55418 23.7899 9.60057C24.1165 9.64817 24.442 9.70386 24.7686 9.76884C25.0952 9.83495 25.3731 9.91383 25.6036 10.0078L24.8826 13.4696Z" fill="#1B1A1C"/>
    <path d="M53.7048 13.7433C53.3651 13.6609 52.9661 13.5739 52.5087 13.4823C52.0503 13.3917 51.5586 13.3453 51.0324 13.3453C50.7949 13.3453 50.511 13.3663 50.1796 13.408C49.8483 13.4498 49.5977 13.495 49.4291 13.5449V23.5395H45.6367V11.1573C46.3149 10.9253 47.1166 10.706 48.0418 10.4984C48.9671 10.2919 49.9979 10.1875 51.1346 10.1875C51.3389 10.1875 51.5835 10.2003 51.8734 10.2246C52.1619 10.249 52.4505 10.2826 52.7392 10.3244C53.0278 10.3661 53.3164 10.4161 53.605 10.474C53.8937 10.532 54.1395 10.6028 54.3437 10.6852L53.7048 13.7433Z" fill="white"/>
    <path d="M60.5252 6.68117C60.5252 7.36101 60.2995 7.89583 59.8506 8.28449C59.4004 8.67428 58.8708 8.86921 58.2591 8.86921C57.6486 8.86921 57.1177 8.67428 56.6687 8.28449C56.2186 7.8947 55.9941 7.36101 55.9941 6.68117C55.9941 6.00134 56.2186 5.46652 56.6687 5.07787C57.1177 4.68807 57.6486 4.49316 58.2591 4.49316C58.8696 4.49316 59.4004 4.68807 59.8506 5.07787C60.3007 5.46767 60.5252 6.00134 60.5252 6.68117ZM60.1689 23.5391H56.3765V10.4609H60.1689V23.5391Z" fill="white"/>
    <path d="M73.7884 12.9471C73.482 13.2789 73.0699 13.7268 72.552 14.2894C72.033 14.8532 71.476 15.475 70.8809 16.1537C70.2859 16.8336 69.6861 17.5459 69.0827 18.2919C68.4794 19.0379 67.9307 19.7594 67.4378 20.4555H73.9167V23.5392H62.8438V21.3511C63.2001 20.7549 63.6289 20.1121 64.1289 19.4242C64.6289 18.7362 65.155 18.0448 65.7073 17.3475C66.2584 16.6514 66.806 15.9763 67.3487 15.3207C67.8915 14.6664 68.3927 14.0736 68.85 13.5435H63.1478V10.4609H73.7872V12.9471H73.7884Z" fill="white"/>
    <path d="M75.4434 17.0996C75.4434 15.9394 75.6247 14.9244 75.9911 14.0543C76.3553 13.1842 76.8351 12.4591 77.429 11.879C78.0228 11.2989 78.7059 10.8592 79.478 10.5611C80.2502 10.2629 81.0435 10.1133 81.858 10.1133C83.7583 10.1133 85.2595 10.6818 86.3634 11.8163C87.4665 12.9521 88.0173 14.6215 88.0173 16.8258C88.0173 17.0416 88.009 17.2771 87.9924 17.5347C87.9758 17.7921 87.9584 18.0196 87.9418 18.218H79.3375C79.4221 18.9802 79.7871 19.5858 80.4331 20.0336C81.0775 20.4814 81.9426 20.7053 83.0291 20.7053C83.725 20.7053 84.408 20.6426 85.0782 20.5185C85.7476 20.3944 86.2954 20.2412 86.7193 20.0579L87.2293 23.0661C87.0245 23.1659 86.754 23.2646 86.414 23.3643C86.0748 23.4641 85.697 23.5511 85.2815 23.6253C84.8651 23.6996 84.4201 23.7622 83.9449 23.8121C83.4696 23.862 82.9944 23.8864 82.5199 23.8864C81.314 23.8864 80.2668 23.7123 79.376 23.3643C78.4852 23.0163 77.7463 22.5395 77.1607 21.935C76.5752 21.3306 76.143 20.6136 75.8627 19.7841C75.5831 18.9558 75.4434 18.0613 75.4434 17.0996ZM84.3521 15.6819C84.3355 15.3675 84.2796 15.0601 84.1874 14.7619C84.0937 14.4638 83.9494 14.1981 83.7552 13.9661C83.5603 13.7341 83.3132 13.5438 83.0163 13.3941C82.7194 13.2445 82.3499 13.1702 81.9094 13.1702C81.4855 13.1702 81.1206 13.241 80.8138 13.3814C80.5086 13.5229 80.2532 13.7085 80.0507 13.9405C79.8475 14.1726 79.6896 14.4417 79.5793 14.7491C79.4682 15.0566 79.3874 15.3664 79.3367 15.6819H84.3521Z" fill="white"/>
    <path d="M94.6029 23.5392C93.7348 21.8813 92.8523 19.9427 91.9577 17.7211C91.0631 15.5006 90.2169 13.0805 89.416 10.4609H93.4378C93.6078 11.1072 93.8081 11.8079 94.0385 12.562C94.2689 13.316 94.507 14.0782 94.7548 14.8497C95.0018 15.6201 95.2489 16.3707 95.496 17.1004C95.743 17.8301 95.9863 18.4926 96.2251 19.0901C96.4465 18.4937 96.6845 17.8301 96.9398 17.1004C97.1952 16.3707 97.4476 15.6212 97.6946 14.8497C97.9417 14.0794 98.1805 13.3172 98.4094 12.562C98.6383 11.8079 98.8393 11.1072 99.0101 10.4609H102.932C102.132 13.0805 101.285 15.5006 100.392 17.7211C99.4981 19.9427 98.6172 21.8813 97.7506 23.5392H94.6029Z" fill="white"/>
    <path d="M117.11 16.9747C117.11 18.0026 116.957 18.9435 116.652 19.7961C116.346 20.65 115.905 21.3798 115.328 21.9841C114.751 22.5898 114.059 23.0573 113.252 23.3891C112.446 23.7208 111.543 23.8868 110.542 23.8868C109.558 23.8868 108.662 23.7208 107.857 23.3891C107.051 23.0573 106.359 22.5898 105.782 21.9841C105.205 21.3798 104.755 20.65 104.433 19.7961C104.109 18.9423 103.949 18.0026 103.949 16.9747C103.949 15.9469 104.115 15.0106 104.446 14.1649C104.777 13.3191 105.234 12.5987 105.82 12.0012C106.406 11.4049 107.101 10.9409 107.907 10.6091C108.712 10.2772 109.591 10.1113 110.541 10.1113C111.508 10.1113 112.395 10.2772 113.202 10.6091C114.007 10.9409 114.699 11.4049 115.277 12.0012C115.854 12.5976 116.303 13.3191 116.626 14.1649C116.949 15.0106 117.11 15.9469 117.11 16.9747ZM113.241 16.9747C113.241 15.8308 113.007 14.9317 112.541 14.2774C112.074 13.6231 111.408 13.2948 110.544 13.2948C109.678 13.2948 109.008 13.6219 108.532 14.2774C108.058 14.9329 107.82 15.8308 107.82 16.9747C107.82 18.1186 108.058 19.0258 108.532 19.6975C109.008 20.3693 109.678 20.7045 110.544 20.7045C111.41 20.7045 112.074 20.3693 112.541 19.6975C113.008 19.0258 113.241 18.1186 113.241 16.9747Z" fill="white"/>
    </g>
    <defs>
    <clipPath id="clip0">
    <rect width="117.111" height="34" fill="white"/>
    </clipPath>
    </defs>
    </svg>